Mertz-Heavy.ufo
<glyph name="exclam" format="1">
  <advance width="543"/>
  <unicode hex="0021"/>
  <outline>
    <contour>
      <point x="322" y="439" type="line"/>
      <point x="422" y="1241" type="line"/>
      <point x="114" y="1241" type="line"/>
      <point x="214" y="439" type="line"/>
    </contour>
    <component base="period"/>
  </outline>
</glyph>
<glyph name="parenright" format="1">
  <advance width="586"/>
  <unicode hex="0029"/>
  <outline>
    <contour>
      <point x="434" y="637" type="curve" smooth="yes"/>
      <point x="434" y="380"/>
      <point x="388" y="122"/>
      <point x="295" y="-81" type="curve"/>
      <point x="1" y="-81" type="line"/>
      <point x="96" y="140"/>
      <point x="144" y="389"/>
      <point x="144" y="638" type="curve" smooth="yes"/>
      <point x="144" y="888"/>
      <point x="95" y="1139"/>
      <point x="-1" y="1361" type="curve"/>
      <point x="293" y="1361" type="line"/>
      <point x="387" y="1157"/>
      <point x="434" y="897"/>
    </contour>
  </outline>
</glyph>
<glyph name="period" format="1">
  <advance width="543"/>
  <unicode hex="002E"/>
  <outline>
    <contour>
      <point x="440" y="149" type="curve" smooth="yes"/>
      <point x="440" y="229"/>
      <point x="379" y="314"/>
      <point x="272" y="314" type="curve" smooth="yes"/>
      <point x="165" y="314"/>
      <point x="103" y="230"/>
      <point x="103" y="149" type="curve" smooth="yes"/>
      <point x="103" y="65"/>
      <point x="166" y="-16"/>
      <point x="272" y="-16" type="curve" smooth="yes"/>
      <point x="378" y="-16"/>
      <point x="440" y="66"/>
    </contour>
  </outline>
</glyph>
<glyph name="zero" format="1">
  <advance width="1239"/>
  <unicode hex="0030"/>
  <outline>
    <contour>
      <point x="620" y="226" type="curve" smooth="yes"/>
      <point x="462" y="226"/>
      <point x="345" y="298"/>
      <point x="345" y="629" type="curve" smooth="yes"/>
      <point x="345" y="956"/>
      <point x="462" y="1017"/>
      <point x="620" y="1017" type="curve" smooth="yes"/>
      <point x="779" y="1017"/>
      <point x="896" y="955"/>
      <point x="896" y="629" type="curve" smooth="yes"/>
      <point x="896" y="298"/>
      <point x="779" y="226"/>
    </contour>
    <contour>
      <point x="620" y="-33" type="curve" smooth="yes"/>
      <point x="1023" y="-33"/>
      <point x="1189" y="206"/>
      <point x="1189" y="623" type="curve" smooth="yes"/>
      <point x="1189" y="1062"/>
      <point x="1008" y="1276"/>
      <point x="620" y="1276" type="curve" smooth="yes"/>
      <point x="232" y="1276"/>
      <point x="50" y="1062"/>
      <point x="50" y="623" type="curve" smooth="yes"/>
      <point x="50" y="206"/>
      <point x="217" y="-33"/>
    </contour>
  </outline>
</glyph>
<glyph name="one" format="1">
  <advance width="743"/>
  <unicode hex="0031"/>
  <outline>
    <contour>
      <point x="295.0" y="0.0" type="line"/>
      <point x="603" y="0" type="line"/>
      <point x="603" y="1291" type="line"/>
      <point x="603" y="1291"/>
      <point x="117" y="1046"/>
      <point x="46" y="1022" type="curve"/>
      <point x="46" y="749" type="line"/>
      <point x="167" y="786"/>
      <point x="230" y="807"/>
      <point x="295" y="841" type="curve"/>
    </contour>
  </outline>
</glyph>
<glyph name="three" format="1">
  <advance width="1009"/>
  <unicode hex="0033"/>
  <outline>
    <contour>
      <point x="508" y="-36" type="curve" smooth="yes"/>
      <point x="770" y="-36"/>
      <point x="933" y="118"/>
      <point x="933" y="311" type="curve" smooth="yes"/>
      <point x="933" y="490"/>
      <point x="846" y="581"/>
      <point x="704" y="656" type="curve"/>
      <point x="836" y="710"/>
      <point x="896" y="812"/>
      <point x="896" y="929" type="curve" smooth="yes"/>
      <point x="896" y="1127"/>
      <point x="737" y="1276"/>
      <point x="509" y="1276" type="curve" smooth="yes"/>
      <point x="375" y="1276"/>
      <point x="189" y="1239"/>
      <point x="79" y="1168" type="curve"/>
      <point x="150" y="952" type="line"/>
      <point x="278" y="1007"/>
      <point x="384" y="1025"/>
      <point x="452" y="1025" type="curve" smooth="yes"/>
      <point x="574" y="1025"/>
      <point x="611" y="957"/>
      <point x="611" y="901" type="curve" smooth="yes"/>
      <point x="611" y="819"/>
      <point x="481" y="722"/>
      <point x="295" y="686" type="curve" smooth="yes"/>
      <point x="295" y="686"/>
      <point x="295" y="612"/>
      <point x="295" y="612" type="curve" smooth="yes"/>
      <point x="498" y="559"/>
      <point x="625" y="481"/>
      <point x="625" y="371" type="curve" smooth="yes"/>
      <point x="625" y="269"/>
      <point x="546" y="215"/>
      <point x="456" y="215" type="curve" smooth="yes"/>
      <point x="346" y="215"/>
      <point x="242" y="237"/>
      <point x="152" y="282" type="curve"/>
      <point x="93" y="50" type="line"/>
      <point x="93" y="50"/>
      <point x="279" y="-36"/>
    </contour>
  </outline>
</glyph>
<glyph name="seven" format="1">
  <advance width="1007"/>
  <unicode hex="0037"/>
  <outline>
    <contour>
      <point x="179" y="0" type="line"/>
      <point x="505" y="0" type="line"/>
      <point x="887" y="1020" type="line"/>
      <point x="887" y="1241" type="line"/>
      <point x="125" y="1241" type="line"/>
      <point x="125" y="973" type="line"/>
      <point x="556" y="973" type="line"/>
    </contour>
  </outline>
</glyph>
<glyph name="nine" format="1">
  <advance width="1115"/>
  <unicode hex="0039"/>
  <outline>
    <contour>
      <point x="200" y="0" type="line"/>
      <point x="523" y="0" type="line"/>
      <point x="523" y="0"/>
      <point x="780" y="312"/>
      <point x="857" y="416" type="curve" smooth="yes"/>
      <point x="979" y="579"/>
      <point x="1043" y="695"/>
      <point x="1043" y="859" type="curve" smooth="yes"/>
      <point x="1043" y="1091"/>
      <point x="838" y="1276"/>
      <point x="568" y="1276" type="curve" smooth="yes"/>
      <point x="312" y="1276"/>
      <point x="97" y="1122"/>
      <point x="97" y="861" type="curve" smooth="yes"/>
      <point x="97" y="619"/>
      <point x="288" y="462"/>
      <point x="502" y="462" type="curve" smooth="yes"/>
      <point x="522" y="462"/>
      <point x="551" y="465"/>
      <point x="571" y="468" type="curve"/>
    </contour>
    <contour>
      <point x="568" y="682" type="curve" smooth="yes"/>
      <point x="441" y="682"/>
      <point x="378" y="770"/>
      <point x="378" y="860" type="curve" smooth="yes"/>
      <point x="378" y="951"/>
      <point x="444" y="1043"/>
      <point x="574" y="1043" type="curve" smooth="yes"/>
      <point x="705" y="1043"/>
      <point x="768" y="956"/>
      <point x="768" y="867" type="curve" smooth="yes"/>
      <point x="768" y="775"/>
      <point x="700" y="682"/>
    </contour>
  </outline>
</glyph>
<glyph name="C" format="1">
  <advance width="1287"/>
  <unicode hex="0043"/>
  <outline>
    <contour>
      <point x="749" y="-33" type="curve" smooth="yes"/>
      <point x="977" y="-33"/>
      <point x="1170" y="68"/>
      <point x="1170" y="68" type="curve"/>
      <point x="1170" y="355" type="line"/>
      <point x="1061" y="276"/>
      <point x="917" y="228"/>
      <point x="780" y="228" type="curve" smooth="yes"/>
      <point x="571" y="228"/>
      <point x="384" y="339"/>
      <point x="384" y="622" type="curve" smooth="yes"/>
      <point x="384" y="906"/>
      <point x="571" y="1014"/>
      <point x="780" y="1014" type="curve" smooth="yes"/>
      <point x="917" y="1014"/>
      <point x="1061" y="966"/>
      <point x="1170" y="887" type="curve"/>
      <point x="1170" y="1174" type="line"/>
      <point x="1170" y="1174"/>
      <point x="977" y="1275"/>
      <point x="749" y="1275" type="curve" smooth="yes"/>
      <point x="361" y="1275"/>
      <point x="74" y="1026"/>
      <point x="74" y="622" type="curve" smooth="yes"/>
      <point x="74" y="219"/>
      <point x="361" y="-33"/>
    </contour>
  </outline>
</glyph>
<glyph name="D" format="1">
  <advance width="1402"/>
  <unicode hex="0044"/>
  <outline>
    <contour>
      <point x="654" y="0" type="line" smooth="yes"/>
      <point x="1071" y="0"/>
      <point x="1307" y="296"/>
      <point x="1307" y="626" type="curve" smooth="yes"/>
      <point x="1307" y="984"/>
      <point x="1087" y="1241"/>
      <point x="681" y="1241" type="curve" smooth="yes"/>
      <point x="138" y="1241" type="line"/>
      <point x="138" y="0" type="line"/>
    </contour>
    <contour>
      <point x="432" y="1013" type="line"/>
      <point x="660" y="1013" type="line" smooth="yes"/>
      <point x="884" y="1013"/>
      <point x="1000.29998779" y="823.5"/>
      <point x="1000.29998779" y="623.0" type="curve" smooth="yes"/>
      <point x="1000.29998779" y="388.5"/>
      <point x="881.0" y="229.0"/>
      <point x="619.0" y="229.0" type="curve" smooth="yes"/>
      <point x="432" y="229" type="line"/>
    </contour>
  </outline>
</glyph>
<glyph name="E" format="1">
  <advance width="973"/>
  <unicode hex="0045"/>
  <outline>
    <contour>
      <point x="138" y="0" type="line"/>
      <point x="871" y="0" type="line"/>
      <point x="871" y="266" type="line"/>
      <point x="430" y="266" type="line"/>
      <point x="430" y="512" type="line"/>
      <point x="795" y="512" type="line"/>
      <point x="795" y="764" type="line"/>
      <point x="432" y="764" type="line"/>
      <point x="432" y="985" type="line"/>
      <point x="861" y="985" type="line"/>
      <point x="861" y="1241" type="line"/>
      <point x="138" y="1241" type="line"/>
    </contour>
  </outline>
</glyph>
<glyph name="H" format="1">
  <advance width="1313"/>
  <unicode hex="0048"/>
  <outline>
    <contour>
      <point x="1173" y="0" type="line"/>
      <point x="1173" y="1241" type="line"/>
      <point x="865" y="1241" type="line"/>
      <point x="865" y="786" type="line"/>
      <point x="446" y="786" type="line"/>
      <point x="446" y="1241" type="line"/>
      <point x="138" y="1241" type="line"/>
      <point x="138" y="0" type="line"/>
      <point x="446" y="0" type="line"/>
      <point x="446" y="518" type="line"/>
      <point x="865" y="518" type="line"/>
      <point x="865" y="0" type="line"/>
    </contour>
  </outline>
</glyph>
<glyph name="N" format="1">
  <advance width="1343"/>
  <unicode hex="004E"/>
  <outline>
    <contour>
      <point x="1203" y="-58" type="line"/>
      <point x="1203" y="1241" type="line"/>
      <point x="895" y="1241" type="line"/>
      <point x="895" y="603" type="line"/>
      <point x="138" y="1311" type="line"/>
      <point x="138" y="0" type="line"/>
      <point x="446" y="0" type="line"/>
      <point x="446" y="643" type="line"/>
    </contour>
  </outline>
</glyph>
<glyph name="Q" format="1">
  <advance width="1499"/>
  <unicode hex="0051"/>
  <outline>
    <contour>
      <point x="884" y="449" type="line"/>
      <point x="793" y="358" type="line"/>
      <point x="1271" y="-202" type="line"/>
      <point x="1450" y="-64" type="line"/>
    </contour>
    <component base="O"/>
  </outline>
</glyph>
<glyph name="S" format="1">
  <advance width="956"/>
  <unicode hex="0053"/>
  <outline>
    <contour>
      <point x="117" y="90" type="line" smooth="yes"/>
      <point x="117" y="89.8330078125"/>
      <point x="265.5" y="-33.0"/>
      <point x="515.0" y="-33.0" type="curve" smooth="yes"/>
      <point x="705.0" y="-33.0"/>
      <point x="870.0" y="81.0"/>
      <point x="870.0" y="320.0" type="curve" smooth="yes"/>
      <point x="870.0" y="449.0"/>
      <point x="800.171020508" y="557.176025391"/>
      <point x="649.0" y="672.0" type="curve" smooth="yes"/>
      <point x="466.0" y="811.0" type="line" smooth="yes"/>
      <point x="408.503997803" y="854.67199707"/>
      <point x="385.0" y="901.0"/>
      <point x="385.0" y="932.0" type="curve" smooth="yes"/>
      <point x="385.0" y="973.0"/>
      <point x="403.0" y="1026.0"/>
      <point x="506.0" y="1026.0" type="curve" smooth="yes"/>
      <point x="632.0" y="1026.0"/>
      <point x="815.0" y="933.0"/>
      <point x="815.0" y="933.0" type="curve"/>
      <point x="815.0" y="1187.0" type="line" smooth="yes"/>
      <point x="815.0" y="1193.40002441"/>
      <point x="664.0" y="1277.0"/>
      <point x="465.0" y="1277.0" type="curve" smooth="yes"/>
      <point x="216.0" y="1277.0"/>
      <point x="90.0" y="1108.0"/>
      <point x="90.0" y="925.0" type="curve" smooth="yes"/>
      <point x="90.0" y="819.0"/>
      <point x="148.630004883" y="695.857971191"/>
      <point x="258.0" y="615.0" type="curve" smooth="yes"/>
      <point x="492.0" y="442.0" type="line" smooth="yes"/>
      <point x="581.333984375" y="376.790008545"/>
      <point x="583.0" y="348.0"/>
      <point x="583.0" y="316.0" type="curve" smooth="yes"/>
      <point x="583.0" y="253.770996094"/>
      <point x="548.965026855" y="216.910003662"/>
      <point x="470.781005859" y="216.910003662" type="curve" smooth="yes"/>
      <point x="334.665008545" y="216.910003662"/>
      <point x="117.680999756" y="354.729003906"/>
      <point x="117.0" y="355.0" type="curve"/>
    </contour>
  </outline>
</glyph>
<glyph name="V" format="1">
  <advance width="1263"/>
  <unicode hex="0056"/>
  <outline>
    <contour>
      <point x="329" y="1241" type="line"/>
      <point x="20" y="1241" type="line"/>
      <point x="640" y="-58" type="line"/>
      <point x="1237" y="1241" type="line"/>
      <point x="922" y="1241" type="line"/>
      <point x="637" y="556" type="line"/>
    </contour>
  </outline>
</glyph>
<glyph name="bracketleft" format="1">
  <advance width="1122"/>
  <unicode hex="005B"/>
  <outline>
    <contour>
      <point x="711" y="0" type="line"/>
      <point x="711" y="973" type="line"/>
      <point x="1076" y="973" type="line"/>
      <point x="1076" y="1241" type="line"/>
      <point x="403" y="1241" type="line"/>
      <point x="403" y="0" type="line"/>
    </contour>
  </outline>
</glyph>
<glyph name="underscore" format="1">
  <advance width="1009"/>
  <unicode hex="005F"/>
  <outline>
    <contour>
      <point x="138" y="-249" type="line"/>
      <point x="931" y="-249" type="line"/>
      <point x="931" y="-1" type="line"/>
      <point x="138" y="-1" type="line"/>
    </contour>
  </outline>
</glyph>
<glyph name="c" format="1">
  <advance width="953.0"/>
  <unicode hex="0063"/>
  <outline>
    <contour>
      <point x="79.0" y="439.979003906" type="curve" smooth="yes"/>
      <point x="79.0" y="169.186004639"/>
      <point x="282.121002197" y="-25.0"/>
      <point x="580.0" y="-25.0" type="curve" smooth="yes"/>
      <point x="743.255981445" y="-25.0"/>
      <point x="840.526000977" y="48.5838012695"/>
      <point x="857.0" y="56.8193054199" type="curve"/>
      <point x="857.0" y="295.0" type="line"/>
      <point x="784.315979004" y="255.0"/>
      <point x="730.107971191" y="217.0"/>
      <point x="601.0" y="217.0" type="curve" smooth="yes"/>
      <point x="443.467987061" y="217.0"/>
      <point x="354.0" y="314.345001221"/>
      <point x="354.0" y="440.847991943" type="curve" smooth="yes"/>
      <point x="354.0" y="567.929992676"/>
      <point x="440.12600708" y="658.0"/>
      <point x="589.0" y="658.0" type="curve" smooth="yes"/>
      <point x="750.419006348" y="658.0"/>
      <point x="836.383972168" y="570.828979492"/>
      <point x="857.0" y="553.648986816" type="curve"/>
      <point x="857.0" y="826.351989746" type="line"/>
      <point x="843.822021484" y="835.138977051"/>
      <point x="769.958007812" y="903.0"/>
      <point x="574.0" y="903.0" type="curve" smooth="yes"/>
      <point x="293.25100708" y="903"/>
      <point x="79.0" y="716.854003906"/>
    </contour>
  </outline>
</glyph>
<glyph name="d" format="1">
  <advance width="1094"/>
  <unicode hex="0064"/>
  <outline>
    <contour>
      <point x="574" y="-20" type="curve" smooth="yes"/>
      <point x="689" y="-20"/>
      <point x="825" y="6"/>
      <point x="972" y="55" type="curve"/>
      <point x="972" y="1277" type="line"/>
      <point x="697" y="1240" type="line"/>
      <point x="697" y="846" type="line"/>
      <point x="625" y="886"/>
      <point x="552" y="904"/>
      <point x="484" y="904" type="curve" smooth="yes"/>
      <point x="261" y="904"/>
      <point x="79" y="717"/>
      <point x="79" y="475" type="curve" smooth="yes"/>
      <point x="79" y="162"/>
      <point x="258" y="-20"/>
    </contour>
    <contour>
      <point x="617" y="191" type="curve" smooth="yes"/>
      <point x="451" y="191"/>
      <point x="349" y="274"/>
      <point x="349" y="453" type="curve" smooth="yes"/>
      <point x="349" y="593"/>
      <point x="435" y="680"/>
      <point x="557" y="680" type="curve" smooth="yes"/>
      <point x="600" y="680"/>
      <point x="645" y="670"/>
      <point x="697" y="646" type="curve"/>
      <point x="697" y="196" type="line"/>
      <point x="669" y="193"/>
      <point x="642" y="191"/>
    </contour>
  </outline>
</glyph>
<glyph name="f" format="1">
  <advance width="717"/>
  <unicode hex="0066"/>
  <outline>
    <contour>
      <point x="459" y="0" type="line"/>
      <point x="459" y="659" type="line"/>
      <point x="615" y="659" type="line"/>
      <point x="615" y="876" type="line"/>
      <point x="459" y="876" type="line"/>
      <point x="459" y="942" type="line" smooth="yes"/>
      <point x="459" y="1002"/>
      <point x="503" y="1019"/>
      <point x="554" y="1019" type="curve" smooth="yes"/>
      <point x="626" y="1019"/>
      <point x="713" y="985"/>
      <point x="713" y="985" type="curve"/>
      <point x="713" y="1227" type="line"/>
      <point x="713" y="1227"/>
      <point x="610" y="1269"/>
      <point x="508" y="1269" type="curve" smooth="yes"/>
      <point x="289" y="1269"/>
      <point x="180" y="1152"/>
      <point x="180" y="942" type="curve" smooth="yes"/>
      <point x="180" y="876" type="line"/>
      <point x="65" y="876" type="line"/>
      <point x="65" y="659" type="line"/>
      <point x="183" y="659" type="line"/>
      <point x="183" y="0" type="line"/>
    </contour>
  </outline>
</glyph>
<glyph name="h" format="1">
  <advance width="1160.0"/>
  <unicode hex="0068"/>
  <outline>
    <contour>
      <point x="404.0" y="0" type="line"/>
      <point x="404.0" y="580.859985352" type="line"/>
      <point x="432.00100708" y="635.578979492"/>
      <point x="530.0" y="688"/>
      <point x="625.0" y="688" type="curve" smooth="yes"/>
      <point x="703.0" y="688"/>
      <point x="768.0" y="654.047973633"/>
      <point x="768.0" y="558.757019043" type="curve" smooth="yes"/>
      <point x="768.0" y="0.0" type="line"/>
      <point x="1050.0" y="0.0" type="line"/>
      <point x="1050.0" y="580.150024414" type="line" smooth="yes"/>
      <point x="1050.0" y="770.744995117"/>
      <point x="897.942993164" y="903.0"/>
      <point x="711.0" y="903.0" type="curve" smooth="yes"/>
      <point x="611.866027832" y="903.0"/>
      <point x="503.0" y="874"/>
      <point x="401.0" y="785" type="curve"/>
      <point x="401.0" y="1277.43994141" type="line"/>
      <point x="122.0" y="1239.73999023" type="line"/>
      <point x="122.0" y="0" type="line"/>
    </contour>
  </outline>
</glyph>
<glyph name="q" format="1">
  <advance width="1091.0"/>
  <unicode hex="0071"/>
  <outline>
    <contour>
      <point x="694.0" y="-364.0" type="line"/>
      <point x="969.0" y="-364.0" type="line"/>
      <point x="969" y="876" type="line"/>
      <point x="969" y="876"/>
      <point x="694" y="876"/>
      <point x="694" y="876" type="curve" smooth="yes"/>
      <point x="694" y="876"/>
      <point x="694" y="849"/>
      <point x="694" y="849" type="curve"/>
      <point x="672" y="863"/>
      <point x="607" y="901"/>
      <point x="520" y="901" type="curve"/>
      <point x="271" y="901"/>
      <point x="79.0" y="731.0"/>
      <point x="79.0" y="418.0" type="curve" smooth="yes"/>
      <point x="79.0" y="160.0"/>
      <point x="288.0" y="-24.0"/>
      <point x="511.0" y="-24.0" type="curve" smooth="yes"/>
      <point x="579.0" y="-24.0"/>
      <point x="631.0" y="-18.0"/>
      <point x="694.0" y="7.0" type="curve"/>
    </contour>
    <contour>
      <point x="554.0" y="200" type="curve" smooth="yes"/>
      <point x="432.0" y="200"/>
      <point x="349.0" y="297"/>
      <point x="349.0" y="437" type="curve" smooth="yes"/>
      <point x="349.0" y="616"/>
      <point x="444.0" y="689"/>
      <point x="582.0" y="689" type="curve" smooth="yes"/>
      <point x="607.0" y="689"/>
      <point x="694.0" y="676"/>
      <point x="694.0" y="676" type="curve"/>
      <point x="694.0" y="207" type="line"/>
      <point x="694.0" y="207"/>
      <point x="658.0" y="200"/>
    </contour>
  </outline>
</glyph>
<glyph name="r" format="1">
  <advance width="853"/>
  <unicode hex="0072"/>
  <outline>
    <contour>
      <point x="856" y="744" type="line"/>
      <point x="780" y="832"/>
      <point x="709" y="881"/>
      <point x="627" y="881" type="curve" smooth="yes"/>
      <point x="555" y="881"/>
      <point x="435" y="779"/>
      <point x="395" y="630" type="curve"/>
      <point x="395" y="876" type="line"/>
      <point x="122" y="876" type="line"/>
      <point x="122.0" y="0.0" type="line"/>
      <point x="395.0" y="0.0" type="line"/>
      <point x="395.0" y="365.122009277" type="line" smooth="yes"/>
      <point x="395.0" y="535.20501709"/>
      <point x="497" y="615"/>
      <point x="580" y="615" type="curve" smooth="yes"/>
      <point x="633" y="615"/>
      <point x="687" y="578"/>
      <point x="731" y="521" type="curve"/>
    </contour>
  </outline>
</glyph>
<glyph name="s" format="1">
  <advance width="837"/>
  <unicode hex="0073"/>
  <outline>
    <contour>
      <point x="740" y="823" type="line"/>
      <point x="729" y="831"/>
      <point x="608" y="904"/>
      <point x="427" y="904" type="curve" smooth="yes"/>
      <point x="229" y="904"/>
      <point x="116" y="778"/>
      <point x="116" y="644" type="curve" smooth="yes"/>
      <point x="116" y="557"/>
      <point x="163" y="462"/>
      <point x="260" y="402" type="curve" smooth="yes"/>
      <point x="458" y="282" type="line" smooth="yes"/>
      <point x="485" y="265"/>
      <point x="496" y="247"/>
      <point x="496" y="231" type="curve" smooth="yes"/>
      <point x="496" y="205"/>
      <point x="469" y="192"/>
      <point x="439" y="192" type="curve" smooth="yes"/>
      <point x="287" y="192"/>
      <point x="162.57392518" y="271.626281278"/>
      <point x="119" y="300" type="curve"/>
      <point x="92" y="91" type="line"/>
      <point x="99" y="84"/>
      <point x="228" y="-25"/>
      <point x="459" y="-25" type="curve" smooth="yes"/>
      <point x="654" y="-25"/>
      <point x="764" y="104"/>
      <point x="764" y="236" type="curve" smooth="yes"/>
      <point x="764" y="321"/>
      <point x="718" y="413"/>
      <point x="628" y="469" type="curve" smooth="yes"/>
      <point x="415" y="601" type="line" smooth="yes"/>
      <point x="396" y="613"/>
      <point x="384" y="632"/>
      <point x="384" y="651" type="curve" smooth="yes"/>
      <point x="384" y="674"/>
      <point x="404" y="696"/>
      <point x="451" y="696" type="curve" smooth="yes"/>
      <point x="548" y="696"/>
      <point x="671" y="639"/>
      <point x="689" y="627" type="curve"/>
    </contour>
  </outline>
</glyph>
<glyph name="u" format="1">
  <advance width="1150.0"/>
  <unicode hex="0075"/>
  <outline>
    <contour>
      <point x="746" y="876" type="line"/>
      <point x="746" y="294.130981445" type="line"/>
      <point x="717.934020996" y="238.906967163"/>
      <point x="622.289001465" y="186.999969482"/>
      <point x="528.0" y="186.999969482" type="curve" smooth="yes"/>
      <point x="449.718994141" y="186.999969482"/>
      <point x="392.0" y="220.951965332"/>
      <point x="392.0" y="316.242980957" type="curve" smooth="yes"/>
      <point x="392" y="876" type="line"/>
      <point x="110" y="876" type="line"/>
      <point x="110.0" y="294.849914551" type="line" smooth="yes"/>
      <point x="110.0" y="104.25491333"/>
      <point x="262.057006836" y="-28.0000915527"/>
      <point x="449.0" y="-28.0000915527" type="curve" smooth="yes"/>
      <point x="548.229003906" y="-28.0000915527"/>
      <point x="647.99597168" y="8.32217407227"/>
      <point x="749.0" y="98.182510376" type="curve"/>
      <point x="749.0" y="-9.1552734375e-05" type="line"/>
      <point x="1028.0" y="-9.1552734375e-05" type="line"/>
      <point x="1028" y="876" type="line"/>
    </contour>
  </outline>
</glyph>
<glyph name="w" format="1">
  <advance width="1329"/>
  <unicode hex="0077"/>
  <outline>
    <contour>
      <point x="669" y="485" type="line"/>
      <point x="936" y="-18" type="line"/>
      <point x="936" y="-18"/>
      <point x="1311" y="876"/>
      <point x="1311" y="876" type="curve"/>
      <point x="1043" y="876" type="line"/>
      <point x="896" y="481" type="line"/>
      <point x="896" y="481"/>
      <point x="669" y="901"/>
      <point x="669" y="901" type="curve"/>
      <point x="440" y="493" type="line"/>
      <point x="301" y="876" type="line"/>
      <point x="18" y="876" type="line"/>
      <point x="18" y="876"/>
      <point x="401" y="-17"/>
      <point x="401" y="-17" type="curve"/>
    </contour>
  </outline>
</glyph>
<glyph name="yen" format="1">
  <advance width="1259"/>
  <unicode hex="00A5"/>
  <outline>
    <contour>
      <point x="792" y="354" type="line"/>
      <point x="1126" y="354" type="line"/>
      <point x="1126" y="522" type="line"/>
      <point x="828" y="522" type="line"/>
      <point x="901" y="649" type="line"/>
      <point x="1136" y="649" type="line"/>
      <point x="1136" y="817" type="line"/>
      <point x="997" y="817" type="line"/>
      <point x="1239" y="1241" type="line"/>
      <point x="924" y="1241" type="line"/>
      <point x="639" y="707" type="line"/>
      <point x="331" y="1241" type="line"/>
      <point x="22" y="1241" type="line"/>
      <point x="274" y="817" type="line"/>
      <point x="129" y="817" type="line"/>
      <point x="129" y="649" type="line"/>
      <point x="373" y="649" type="line"/>
      <point x="449" y="522" type="line"/>
      <point x="139" y="522" type="line"/>
      <point x="139" y="354" type="line"/>
      <point x="484" y="354" type="line"/>
      <point x="484" y="0" type="line"/>
      <point x="792" y="0" type="line"/>
    </contour>
  </outline>
</glyph>
<glyph name="dieresis" format="1">
  <advance width="880"/>
  <unicode hex="00A8"/>
  <outline>
    <contour>
      <point x="830" y="130" type="curve" smooth="yes"/>
      <point x="830" y="201"/>
      <point x="776" y="277"/>
      <point x="681" y="277" type="curve" smooth="yes"/>
      <point x="586" y="277"/>
      <point x="531" y="202"/>
      <point x="531" y="130" type="curve" smooth="yes"/>
      <point x="531" y="56"/>
      <point x="587" y="-16"/>
      <point x="681" y="-16" type="curve" smooth="yes"/>
      <point x="775" y="-16"/>
      <point x="830" y="57"/>
    </contour>
    <contour>
      <point x="348" y="130" type="curve" smooth="yes"/>
      <point x="348" y="201"/>
      <point x="294" y="277"/>
      <point x="199" y="277" type="curve" smooth="yes"/>
      <point x="104" y="277"/>
      <point x="49" y="202"/>
      <point x="49" y="130" type="curve" smooth="yes"/>
      <point x="49" y="56"/>
      <point x="105" y="-16"/>
      <point x="199" y="-16" type="curve" smooth="yes"/>
      <point x="294" y="-16"/>
      <point x="348" y="57"/>
    </contour>
  </outline>
</glyph>
<glyph name="guillemotleft" format="1">
  <advance width="962"/>
  <unicode hex="00AB"/>
  <outline>
    <contour>
      <point x="852" y="156" type="curve" smooth="yes"/>
      <point x="876" y="156"/>
      <point x="892" y="173"/>
      <point x="892" y="193" type="curve" smooth="yes"/>
      <point x="892" y="206"/>
      <point x="886" y="220"/>
      <point x="872" y="233" type="curve" smooth="yes"/>
      <point x="663" y="526" type="line"/>
      <point x="872" y="819" type="line" smooth="yes"/>
      <point x="886" y="832"/>
      <point x="892" y="846"/>
      <point x="892" y="859" type="curve" smooth="yes"/>
      <point x="892" y="879"/>
      <point x="876" y="895"/>
      <point x="852" y="895" type="curve" smooth="yes"/>
      <point x="843" y="895"/>
      <point x="832" y="893"/>
      <point x="821" y="888" type="curve" smooth="yes"/>
      <point x="510" y="651" type="line" smooth="yes"/>
      <point x="458" y="619"/>
      <point x="430" y="572"/>
      <point x="430" y="526" type="curve" smooth="yes"/>
      <point x="430" y="480"/>
      <point x="457" y="434"/>
      <point x="510" y="401" type="curve" smooth="yes"/>
      <point x="821" y="164" type="line" smooth="yes"/>
      <point x="832" y="159"/>
      <point x="843" y="156"/>
    </contour>
    <contour>
      <point x="479.0" y="156.0" type="curve" smooth="yes"/>
      <point x="503.0" y="156.0"/>
      <point x="519.0" y="173.0"/>
      <point x="519.0" y="193.0" type="curve" smooth="yes"/>
      <point x="519.0" y="206.0"/>
      <point x="513.0" y="220.0"/>
      <point x="499.0" y="233.0" type="curve" smooth="yes"/>
      <point x="290.0" y="526.0" type="line"/>
      <point x="499.0" y="819.0" type="line" smooth="yes"/>
      <point x="513.0" y="832.0"/>
      <point x="519.0" y="846.0"/>
      <point x="519.0" y="859.0" type="curve" smooth="yes"/>
      <point x="519.0" y="879.0"/>
      <point x="503.0" y="895.0"/>
      <point x="479.0" y="895.0" type="curve" smooth="yes"/>
      <point x="470.0" y="895.0"/>
      <point x="459.0" y="893.0"/>
      <point x="448.0" y="888.0" type="curve" smooth="yes"/>
      <point x="137.0" y="651.0" type="line" smooth="yes"/>
      <point x="85.0" y="619.0"/>
      <point x="57.0" y="572.0"/>
      <point x="57.0" y="526.0" type="curve" smooth="yes"/>
      <point x="57.0" y="480.0"/>
      <point x="84.0" y="434.0"/>
      <point x="137.0" y="401.0" type="curve" smooth="yes"/>
      <point x="448.0" y="164.0" type="line" smooth="yes"/>
      <point x="459.0" y="159.0"/>
      <point x="470.0" y="156.0"/>
    </contour>
  </outline>
</glyph>
<glyph name="cedilla" format="1">
  <advance width="424"/>
  <unicode hex="00B8"/>
  <outline>
    <contour>
      <point x="260" y="-70" type="line"/>
      <point x="156" y="-100"/>
      <point x="124" y="-150"/>
      <point x="124" y="-201" type="curve" smooth="yes"/>
      <point x="124" y="-278"/>
      <point x="240" y="-356"/>
      <point x="370" y="-356" type="curve"/>
      <point x="384" y="-284" type="line"/>
      <point x="315" y="-273"/>
      <point x="252" y="-224"/>
      <point x="252" y="-181" type="curve" smooth="yes"/>
      <point x="252" y="-154"/>
      <point x="279" y="-129"/>
      <point x="349" y="-120" type="curve"/>
      <point x="349" y="1" type="line"/>
      <point x="260" y="1" type="line"/>
    </contour>
  </outline>
</glyph>
<glyph name="Aacute" format="1">
  <advance width="1284"/>
  <unicode hex="00C1"/>
  <outline>
    <contour>
      <point x="594" y="1448.79980469" type="line" smooth="yes"/>
      <point x="588.666015625" y="1437.5546875"/>
      <point x="586.32421875" y="1427.06738281"/>
      <point x="586.32421875" y="1417.78027344" type="curve" smooth="yes"/>
      <point x="586.32421875" y="1393.48632812"/>
      <point x="602.34765625" y="1377.39746094"/>
      <point x="622.762695312" y="1377.39746094" type="curve" smooth="yes"/>
      <point x="635.411132812" y="1377.39746094"/>
      <point x="649.74609375" y="1383.57324219"/>
      <point x="663.0" y="1397.79980469" type="curve" smooth="yes"/>
      <point x="922.0" y="1675.79980469" type="line" smooth="yes"/>
      <point x="956.452148438" y="1712.77929688"/>
      <point x="970.459960938" y="1749.94921875"/>
      <point x="970.459960938" y="1782.29101562" type="curve" smooth="yes"/>
      <point x="970.459960938" y="1838.97070312"/>
      <point x="927.435546875" y="1880.8203125"/>
      <point x="876.038085938" y="1880.8203125" type="curve" smooth="yes"/>
      <point x="833.556640625" y="1880.8203125"/>
      <point x="785.35546875" y="1852.23242188"/>
      <point x="751.0" y="1779.79980469" type="curve" smooth="yes"/>
    </contour>
    <contour>
      <point x="362.0" y="0.0" type="line"/>
      <point x="483.0" y="290.0" type="line"/>
      <point x="803.0" y="290.0" type="line"/>
      <point x="935.0" y="0.0" type="line"/>
      <point x="1254.0" y="0.0" type="line"/>
      <point x="634.0" y="1311.0" type="line"/>
      <point x="37.0" y="0.0" type="line"/>
    </contour>
    <contour>
      <point x="637.0" y="737.0" type="line"/>
      <point x="748.0" y="474.0" type="line"/>
      <point x="536.0" y="474.0" type="line"/>
    </contour>
  </outline>
</glyph>
<glyph name="Ccedilla" format="1">
  <advance width="1287"/>
  <unicode hex="00C7"/>
  <outline>
    <contour>
      <point x="704" y="-81" type="line"/>
      <point x="600" y="-111"/>
      <point x="558" y="-163"/>
      <point x="558" y="-214" type="curve" smooth="yes"/>
      <point x="558" y="-291"/>
      <point x="654" y="-367"/>
      <point x="784" y="-367" type="curve"/>
      <point x="823" y="-299" type="line"/>
      <point x="756" y="-279"/>
      <point x="695" y="-231"/>
      <point x="695" y="-191" type="curve" smooth="yes"/>
      <point x="695" y="-164"/>
      <point x="722" y="-140"/>
      <point x="793" y="-131" type="curve"/>
      <point x="793" y="-10" type="line"/>
      <point x="704" y="-10" type="line"/>
    </contour>
    <contour>
      <point x="749" y="-33" type="curve" smooth="yes"/>
      <point x="977" y="-33"/>
      <point x="1170" y="68"/>
      <point x="1170" y="68" type="curve"/>
      <point x="1170" y="355" type="line"/>
      <point x="1061" y="276"/>
      <point x="917" y="228"/>
      <point x="780" y="228" type="curve" smooth="yes"/>
      <point x="571" y="228"/>
      <point x="384" y="339"/>
      <point x="384" y="622" type="curve" smooth="yes"/>
      <point x="384" y="906"/>
      <point x="571" y="1014"/>
      <point x="780" y="1014" type="curve" smooth="yes"/>
      <point x="917" y="1014"/>
      <point x="1061" y="966"/>
      <point x="1170" y="887" type="curve"/>
      <point x="1170" y="1174" type="line"/>
      <point x="1170" y="1174"/>
      <point x="977" y="1275"/>
      <point x="749" y="1275" type="curve" smooth="yes"/>
      <point x="361" y="1275"/>
      <point x="74" y="1026"/>
      <point x="74" y="622" type="curve" smooth="yes"/>
      <point x="74" y="219"/>
      <point x="361" y="-33"/>
    </contour>
  </outline>
</glyph>
<glyph name="Thorn" format="1">
  <advance width="1063"/>
  <unicode hex="00DE"/>
  <outline>
    <contour>
      <point x="440" y="0" type="line"/>
      <point x="440" y="285" type="line"/>
      <point x="457" y="285" type="line" smooth="yes"/>
      <point x="613" y="285"/>
      <point x="976" y="292"/>
      <point x="976" y="652" type="curve" smooth="yes"/>
      <point x="976" y="912"/>
      <point x="779" y="1032"/>
      <point x="504" y="1032" type="curve" smooth="yes"/>
      <point x="438" y="1032" type="line"/>
      <point x="438" y="1241" type="line"/>
      <point x="138" y="1241" type="line"/>
      <point x="138" y="0" type="line"/>
    </contour>
    <contour>
      <point x="692" y="647" type="curve" smooth="yes"/>
      <point x="692" y="532"/>
      <point x="614" y="443"/>
      <point x="474" y="443" type="curve" smooth="yes"/>
      <point x="438" y="443" type="line"/>
      <point x="438" y="838" type="line"/>
      <point x="458" y="838" type="line" smooth="yes"/>
      <point x="629" y="838"/>
      <point x="692" y="750"/>
    </contour>
  </outline>
</glyph>
<glyph name="oacute" format="1">
  <advance width="1146"/>
  <unicode hex="00F3"/>
  <outline>
    <contour>
      <point x="600" y="1108.5" type="line" smooth="yes"/>
      <point x="594.666015625" y="1097.25488281"/>
      <point x="592.32421875" y="1086.76757812"/>
      <point x="592.32421875" y="1077.48046875" type="curve" smooth="yes"/>
      <point x="592.32421875" y="1053.18652344"/>
      <point x="608.34765625" y="1037.09765625"/>
      <point x="628.762695312" y="1037.09765625" type="curve" smooth="yes"/>
      <point x="641.411132812" y="1037.09765625"/>
      <point x="655.74609375" y="1043.2734375"/>
      <point x="669.0" y="1057.5" type="curve" smooth="yes"/>
      <point x="928.0" y="1335.5" type="line" smooth="yes"/>
      <point x="962.452148438" y="1372.47851562"/>
      <point x="976.459960938" y="1409.6484375"/>
      <point x="976.459960938" y="1441.99121094" type="curve" smooth="yes"/>
      <point x="976.459960938" y="1498.67089844"/>
      <point x="933.435546875" y="1540.51953125"/>
      <point x="882.038085938" y="1540.51953125" type="curve" smooth="yes"/>
      <point x="839.556640625" y="1540.51953125"/>
      <point x="791.35546875" y="1511.93164062"/>
      <point x="757.0" y="1439.5" type="curve" smooth="yes"/>
    </contour>
    <contour>
      <point x="564.0" y="903.0" type="curve" smooth="yes"/>
      <point x="289.305664062" y="903.0"/>
      <point x="70.0" y="718.916992188"/>
      <point x="70.0" y="440.958007812" type="curve" smooth="yes"/>
      <point x="70.0" y="161.112304688"/>
      <point x="289.225585938" y="-25.0"/>
      <point x="564.0" y="-25.0" type="curve" smooth="yes"/>
      <point x="838.774414062" y="-25.0"/>
      <point x="1058.0" y="161.112304688"/>
      <point x="1058.0" y="440.958007812" type="curve" smooth="yes"/>
      <point x="1058.0" y="718.916992188"/>
      <point x="838.694335938" y="903.0"/>
    </contour>
    <contour>
      <point x="564.0" y="201.0" type="curve" smooth="yes"/>
      <point x="414.861328125" y="201.0"/>
      <point x="338.0" y="317.767578125"/>
      <point x="338.0" y="439.0" type="curve" smooth="yes"/>
      <point x="338.0" y="558.407226562"/>
      <point x="412.939453125" y="677.0"/>
      <point x="564.0" y="677.0" type="curve" smooth="yes"/>
      <point x="715.060546875" y="677.0"/>
      <point x="790.0" y="558.407226562"/>
      <point x="790.0" y="439.0" type="curve" smooth="yes"/>
      <point x="790.0" y="317.767578125"/>
      <point x="713.138671875" y="201.0"/>
    </contour>
  </outline>
</glyph>
<glyph name="oslash" format="1">
  <advance width="1146.0"/>
  <unicode hex="00F8"/>
  <outline>
    <contour>
      <point x="877" y="972" type="line"/>
      <point x="955" y="919" type="line"/>
      <point x="275" y="-102" type="line"/>
      <point x="197" y="-49" type="line"/>
    </contour>
    <component base="o"/>
  </outline>
</glyph>
<glyph name="uacute" format="1">
  <advance width="1152"/>
  <unicode hex="00FA"/>
  <outline>
    <contour>
      <point x="601" y="1108.5" type="line" smooth="yes"/>
      <point x="595.666015625" y="1097.25488281"/>
      <point x="593.32421875" y="1086.76757812"/>
      <point x="593.32421875" y="1077.48046875" type="curve" smooth="yes"/>
      <point x="593.32421875" y="1053.18652344"/>
      <point x="609.34765625" y="1037.09765625"/>
      <point x="629.762695312" y="1037.09765625" type="curve" smooth="yes"/>
      <point x="642.411132812" y="1037.09765625"/>
      <point x="656.74609375" y="1043.2734375"/>
      <point x="670.0" y="1057.5" type="curve" smooth="yes"/>
      <point x="929.0" y="1335.5" type="line" smooth="yes"/>
      <point x="963.452148438" y="1372.47851562"/>
      <point x="977.459960938" y="1409.6484375"/>
      <point x="977.459960938" y="1441.99121094" type="curve" smooth="yes"/>
      <point x="977.459960938" y="1498.67089844"/>
      <point x="934.435546875" y="1540.51953125"/>
      <point x="883.038085938" y="1540.51953125" type="curve" smooth="yes"/>
      <point x="840.556640625" y="1540.51953125"/>
      <point x="792.35546875" y="1511.93164062"/>
      <point x="758.0" y="1439.5" type="curve" smooth="yes"/>
    </contour>
    <contour>
      <point x="1026.0" y="875.0" type="line"/>
      <point x="744.0" y="875.0" type="line"/>
      <point x="744.0" y="294.130859375" type="line"/>
      <point x="715.93359375" y="238.907226562"/>
      <point x="620.2890625" y="187.0"/>
      <point x="526.0" y="187.0" type="curve" smooth="yes"/>
      <point x="447.71875" y="187.0"/>
      <point x="390.0" y="220.952148438"/>
      <point x="390.0" y="316.243164062" type="curve" smooth="yes"/>
      <point x="390.0" y="875.0" type="line"/>
      <point x="108.0" y="875.0" type="line"/>
      <point x="108.0" y="294.849609375" type="line" smooth="yes"/>
      <point x="108.0" y="104.254882812"/>
      <point x="260.056640625" y="-28.0"/>
      <point x="447.0" y="-28.0" type="curve" smooth="yes"/>
      <point x="546.228515625" y="-28.0"/>
      <point x="645.99609375" y="8.322265625"/>
      <point x="747.0" y="98.1826171875" type="curve"/>
      <point x="747.0" y="0.0" type="line"/>
      <point x="1026.0" y="0.0" type="line"/>
    </contour>
  </outline>
</glyph>
<glyph name="Aogonek" format="1">
  <advance width="1284"/>
  <unicode hex="0104"/>
  <outline>
    <contour>
      <point x="1050" y="2.099609375" type="line"/>
      <point x="941" y="-89.900390625"/>
      <point x="900" y="-163.900390625"/>
      <point x="900" y="-222.900390625" type="curve" smooth="yes"/>
      <point x="900" y="-296.900390625"/>
      <point x="965" y="-345.900390625"/>
      <point x="1040" y="-373.900390625" type="curve"/>
      <point x="1109" y="-315.900390625" type="line"/>
      <point x="1044" y="-260.900390625"/>
      <point x="1020" y="-211.900390625"/>
      <point x="1020" y="-167.900390625" type="curve" smooth="yes"/>
      <point x="1020" y="-106.900390625"/>
      <point x="1065" y="-53.900390625"/>
      <point x="1109" y="2.099609375" type="curve"/>
    </contour>
    <contour>
      <point x="362" y="0.0" type="line"/>
      <point x="483" y="290.0" type="line"/>
      <point x="803" y="290.0" type="line"/>
      <point x="935" y="0.0" type="line"/>
      <point x="1254" y="0.0" type="line"/>
      <point x="634" y="1311.0" type="line"/>
      <point x="37" y="0.0" type="line"/>
    </contour>
    <contour>
      <point x="637" y="737.0" type="line"/>
      <point x="748" y="474.0" type="line"/>
      <point x="536" y="474.0" type="line"/>
    </contour>
  </outline>
</glyph>
<glyph name="eogonek" format="1">
  <advance width="1021"/>
  <unicode hex="0119"/>
  <outline>
    <contour>
      <point x="690" y="-7" type="line"/>
      <point x="581" y="-99"/>
      <point x="540" y="-173"/>
      <point x="540" y="-232" type="curve" smooth="yes"/>
      <point x="540" y="-306"/>
      <point x="605" y="-355"/>
      <point x="680" y="-383" type="curve"/>
      <point x="749" y="-325" type="line"/>
      <point x="684" y="-270"/>
      <point x="660" y="-221"/>
      <point x="660" y="-177" type="curve" smooth="yes"/>
      <point x="660" y="-116"/>
      <point x="705" y="-63"/>
      <point x="749" y="-7" type="curve"/>
    </contour>
    <contour>
      <point x="360.547851562" y="566" type="line"/>
      <point x="383.774414062" y="648.197265625"/>
      <point x="458.19921875" y="701.0"/>
      <point x="545.0" y="701.0" type="curve" smooth="yes"/>
      <point x="619.521484375" y="701.0"/>
      <point x="679.043945312" y="662.875976562"/>
      <point x="691.00390625" y="566.0" type="curve"/>
    </contour>
    <contour>
      <point x="624.0" y="196.0" type="curve" smooth="yes"/>
      <point x="498.927734375" y="196.0"/>
      <point x="380.5" y="242.776367188"/>
      <point x="349.00390625" y="389.0" type="curve"/>
      <point x="918.0" y="389.0" type="line"/>
      <point x="918.0" y="455.702148438" type="line" smooth="yes"/>
      <point x="918.0" y="702.9296875"/>
      <point x="799.797851562" y="903.0"/>
      <point x="517.0" y="903.0" type="curve" smooth="yes"/>
      <point x="253.016601562" y="903.0"/>
      <point x="70.0" y="693.405273438"/>
      <point x="70.0" y="452.684570312" type="curve" smooth="yes"/>
      <point x="70.0" y="130.756835938"/>
      <point x="337.356445312" y="-27.0"/>
      <point x="600.0" y="-27.0" type="curve" smooth="yes"/>
      <point x="709.401367188" y="-27.0"/>
      <point x="817.265625" y="2.677734375"/>
      <point x="907.0" y="56.3271484375" type="curve"/>
      <point x="907.0" y="284.734375" type="line"/>
      <point x="842.87109375" y="237.708007812"/>
      <point x="739.856445312" y="196.0"/>
    </contour>
  </outline>
</glyph>
<glyph name="circumflex" format="1">
  <advance width="370"/>
  <unicode hex="02C6"/>
  <outline>
    <contour>
      <point x="37" y="50" type="curve" smooth="yes"/>
      <point x="50" y="50"/>
      <point x="64" y="56"/>
      <point x="77" y="70" type="curve" smooth="yes"/>
      <point x="289.999" y="298.624" type="line"/>
      <point x="502.998" y="70" type="line" smooth="yes"/>
      <point x="515.998" y="56"/>
      <point x="529.998" y="50"/>
      <point x="542.998" y="50" type="curve" smooth="yes"/>
      <point x="562.998" y="50"/>
      <point x="578.998" y="66"/>
      <point x="578.998" y="90" type="curve" smooth="yes"/>
      <point x="578.998" y="99"/>
      <point x="576.998" y="110"/>
      <point x="571.998" y="121" type="curve" smooth="yes"/>
      <point x="414.998" y="452" type="line" smooth="yes"/>
      <point x="382.386" y="521.062"/>
      <point x="337.84" y="553"/>
      <point x="289.998" y="553" type="curve" smooth="yes"/>
      <point x="241.292" y="553"/>
      <point x="197.417" y="520.648"/>
      <point x="165" y="452" type="curve" smooth="yes"/>
      <point x="8" y="121" type="line" smooth="yes"/>
      <point x="3" y="110"/>
      <point x="0" y="99"/>
      <point x="0" y="90" type="curve" smooth="yes"/>
      <point x="0" y="66"/>
      <point x="17" y="50"/>
    </contour>
  </outline>
</glyph>
<glyph name="caron" format="1">
  <advance width="370"/>
  <unicode hex="02C7"/>
  <outline>
    <contour>
      <point x="289" y="50" type="curve" smooth="yes"/>
      <point x="337.706" y="50"/>
      <point x="381.581" y="82.3516"/>
      <point x="413.998" y="151" type="curve" smooth="yes"/>
      <point x="570.998" y="482" type="line" smooth="yes"/>
      <point x="575.998" y="493"/>
      <point x="578.998" y="504"/>
      <point x="578.998" y="513" type="curve" smooth="yes"/>
      <point x="578.998" y="537"/>
      <point x="561.998" y="553"/>
      <point x="541.998" y="553" type="curve" smooth="yes"/>
      <point x="528.998" y="553"/>
      <point x="514.998" y="547"/>
      <point x="501.998" y="533" type="curve" smooth="yes"/>
      <point x="288.999" y="304.376" type="line"/>
      <point x="76" y="533" type="line" smooth="yes"/>
      <point x="63" y="547"/>
      <point x="49" y="553"/>
      <point x="36" y="553" type="curve" smooth="yes"/>
      <point x="16" y="553"/>
      <point x="0" y="537"/>
      <point x="0" y="513" type="curve" smooth="yes"/>
      <point x="0" y="504"/>
      <point x="2" y="493"/>
      <point x="7" y="482" type="curve" smooth="yes"/>
      <point x="164" y="151" type="line" smooth="yes"/>
      <point x="196.612" y="81.9385"/>
      <point x="241.158" y="50"/>
    </contour>
  </outline>
</glyph>
<glyph name="ring" format="1">
  <advance width="1106"/>
  <unicode hex="02DA"/>
  <outline>
    <contour>
      <point x="566" y="629" type="curve" smooth="yes"/>
      <point x="566" y="485"/>
      <point x="451" y="402"/>
      <point x="326" y="402" type="curve" smooth="yes"/>
      <point x="203" y="402"/>
      <point x="89" y="484"/>
      <point x="89" y="629" type="curve" smooth="yes"/>
      <point x="89" y="776"/>
      <point x="203" y="860"/>
      <point x="327" y="860" type="curve" smooth="yes"/>
      <point x="444" y="860"/>
      <point x="566" y="776"/>
    </contour>
    <contour>
      <point x="326.0" y="495.0" type="curve" smooth="yes"/>
      <point x="414.0" y="495.0"/>
      <point x="458.0" y="561.0"/>
      <point x="458.0" y="628.0" type="curve" smooth="yes"/>
      <point x="458.0" y="696.0"/>
      <point x="412.0" y="764.0"/>
      <point x="326.0" y="764.0" type="curve" smooth="yes"/>
      <point x="240.0" y="764.0"/>
      <point x="194.0" y="696.0"/>
      <point x="194.0" y="629.0" type="curve" smooth="yes"/>
      <point x="194.0" y="556.0"/>
      <point x="238.0" y="495.0"/>
    </contour>
  </outline>
</glyph>
<glyph name="ogonek" format="1">
  <advance width="424"/>
  <unicode hex="02DB"/>
  <outline>
    <contour>
      <point x="260" y="0" type="line"/>
      <point x="151" y="-92"/>
      <point x="110" y="-166"/>
      <point x="110" y="-225" type="curve" smooth="yes"/>
      <point x="110" y="-299"/>
      <point x="175" y="-348"/>
      <point x="250" y="-376" type="curve"/>
      <point x="319" y="-318" type="line"/>
      <point x="254" y="-263"/>
      <point x="230" y="-214"/>
      <point x="230" y="-170" type="curve" smooth="yes"/>
      <point x="230" y="-109"/>
      <point x="275" y="-56"/>
      <point x="319" y="0" type="curve"/>
    </contour>
  </outline>
</glyph>
<glyph name="tilde" format="1">
  <advance width="1080"/>
  <unicode hex="02DC"/>
  <outline>
    <contour>
      <point x="878" y="409" type="line"/>
      <point x="874" y="591"/>
      <point x="845" y="687"/>
      <point x="669" y="687" type="curve" smooth="yes"/>
      <point x="515" y="687"/>
      <point x="427" y="575"/>
      <point x="348" y="575" type="curve" smooth="yes"/>
      <point x="304" y="575"/>
      <point x="288" y="593"/>
      <point x="275" y="673" type="curve"/>
      <point x="147" y="673" type="line"/>
      <point x="151" y="491"/>
      <point x="180" y="395"/>
      <point x="356" y="395" type="curve" smooth="yes"/>
      <point x="512" y="395"/>
      <point x="644" y="505"/>
      <point x="695" y="505" type="curve" smooth="yes"/>
      <point x="735" y="505"/>
      <point x="737" y="483"/>
      <point x="750" y="409" type="curve"/>
    </contour>
  </outline>
</glyph>
